<?xml version="1.0" encoding="UTF-8" standalone="no"?><!-- Generator: Gravit.io --><svg xmlns="http://www.w3.org/2000/svg" xmlns:xlink="http://www.w3.org/1999/xlink" style="isolation:isolate" viewBox="0 0 1024 446.051" width="1024pt" height="446.051pt"><g><path d=" M 1024 0 L 927.772 0 L 831.543 165.911 L 927.772 331.822 L 1023.916 331.822 L 927.772 165.994 L 1024 0 Z " fill-rule="evenodd" fill="rgb(0,0,0)"/><radialGradient id="_rgradient_0" fx="0.8926697629415576" fy="0.4976000172499879" cx="0.5" cy="0.5" r="1" gradientTransform="matrix(202.412,0,0,331.988,725.363,0)" gradientUnits="userSpaceOnUse"><stop offset="0%" stop-opacity="1" style="stop-color:rgb(249,190,3)"/><stop offset="100%" stop-opacity="1" style="stop-color:rgb(204,124,25)"/></radialGradient><path d=" M 725.363 0 L 821.592 0 L 927.775 165.994 L 821.592 331.988 L 725.363 331.988 L 831.546 165.994 L 725.363 0 Z " fill-rule="evenodd" fill="url(#_rgradient_0)"/><path d=" M 692.164 331.822 L 500.678 331.822 L 500.678 0 L 692.164 0 L 692.164 57.65 L 571.179 57.65 L 571.179 130.506 L 683.751 130.506 L 683.751 188.153 L 571.179 188.153 L 571.179 273.718 L 692.164 273.718 L 692.164 331.822 Z  M 262.563 331.822 L 262.563 0 L 332.923 0 L 332.923 273.718 L 467.513 273.718 L 467.513 331.822 L 262.563 331.822 Z " fill-rule="evenodd" fill="rgb(0,0,0)"/><path d=" M 195.758 185.43 C 173.437 204.346 141.7 213.801 100.545 213.801 L 70.359 213.801 L 70.359 331.822 L 0 331.822 L 0 156.069 L 96.228 156.188 C 155.148 155.501 158.227 119.416 158.227 106.913 C 158.227 95.306 158.227 58.217 105.851 57.638 L 0 57.639 L 0 0 L 105.992 0 C 146.24 0 176.841 8.663 197.799 25.988 C 218.755 43.314 229.234 69.149 229.234 103.496 C 229.234 139.208 218.074 166.518 195.758 185.43 L 195.758 185.43 Z " fill-rule="evenodd" fill="rgb(0,0,0)"/><path d=" M 0 36.5 L 70.413 36.5 L 70.413 178.852 L 0 178.852 L 0 36.5 Z " fill-rule="evenodd" fill="rgb(0,0,0)"/></g><path d=" M 542.162 381.765 L 542.162 381.765 L 542.162 381.765 Q 533.126 381.765 528.169 388.555 L 528.169 388.555 L 528.169 388.555 Q 523.212 395.345 523.212 407.479 L 523.212 407.479 L 523.212 407.479 Q 523.212 432.729 542.162 432.729 L 542.162 432.729 L 542.162 432.729 Q 550.114 432.729 561.423 428.753 L 561.423 428.753 L 561.423 442.179 L 561.423 442.179 Q 552.128 446.051 540.665 446.051 L 540.665 446.051 L 540.665 446.051 Q 524.193 446.051 515.467 436.06 L 515.467 436.06 L 515.467 436.06 Q 506.74 426.068 506.74 407.376 L 506.74 407.376 L 506.74 407.376 Q 506.74 395.603 511.026 386.748 L 511.026 386.748 L 511.026 386.748 Q 515.312 377.892 523.341 373.168 L 523.341 373.168 L 523.341 373.168 Q 531.371 368.443 542.162 368.443 L 542.162 368.443 L 542.162 368.443 Q 553.161 368.443 564.262 373.761 L 564.262 373.761 L 559.099 386.774 L 559.099 386.774 Q 554.865 384.76 550.579 383.262 L 550.579 383.262 L 550.579 383.262 Q 546.293 381.765 542.162 381.765 Z  M 646.002 407.17 L 646.002 407.17 L 646.002 407.17 Q 646.002 425.913 636.707 435.982 L 636.707 435.982 L 636.707 435.982 Q 627.413 446.051 610.063 446.051 L 610.063 446.051 L 610.063 446.051 Q 592.714 446.051 583.419 435.982 L 583.419 435.982 L 583.419 435.982 Q 574.125 425.913 574.125 407.066 L 574.125 407.066 L 574.125 407.066 Q 574.125 388.219 583.445 378.279 L 583.445 378.279 L 583.445 378.279 Q 592.765 368.34 610.167 368.34 L 610.167 368.34 L 610.167 368.34 Q 627.568 368.34 636.785 378.357 L 636.785 378.357 L 636.785 378.357 Q 646.002 388.374 646.002 407.17 Z  M 590.907 407.17 L 590.907 407.17 L 590.907 407.17 Q 590.907 419.82 595.709 426.223 L 595.709 426.223 L 595.709 426.223 Q 600.511 432.626 610.063 432.626 L 610.063 432.626 L 610.063 432.626 Q 629.22 432.626 629.22 407.17 L 629.22 407.17 L 629.22 407.17 Q 629.22 381.662 610.167 381.662 L 610.167 381.662 L 610.167 381.662 Q 600.614 381.662 595.76 388.09 L 595.76 388.09 L 595.76 388.09 Q 590.907 394.519 590.907 407.17 Z  M 708.274 445.019 L 693.61 445.019 L 675.434 385.792 L 674.969 385.792 L 674.969 385.792 Q 675.95 403.865 675.95 409.906 L 675.95 409.906 L 675.95 445.019 L 661.647 445.019 L 661.647 369.527 L 683.438 369.527 L 701.304 427.256 L 701.613 427.256 L 720.564 369.527 L 742.354 369.527 L 742.354 445.019 L 727.431 445.019 L 727.431 409.287 L 727.431 409.287 Q 727.431 406.757 727.509 403.452 L 727.509 403.452 L 727.509 403.452 Q 727.586 400.147 728.206 385.896 L 728.206 385.896 L 727.741 385.896 L 708.274 445.019 Z  M 777.363 382.643 L 777.363 405.053 L 782.63 405.053 L 782.63 405.053 Q 790.014 405.053 793.68 402.135 L 793.68 402.135 L 793.68 402.135 Q 797.346 399.218 797.346 393.641 L 797.346 393.641 L 797.346 393.641 Q 797.346 388.013 794.274 385.328 L 794.274 385.328 L 794.274 385.328 Q 791.201 382.643 784.644 382.643 L 784.644 382.643 L 777.363 382.643 Z  M 813.508 393.073 L 813.508 393.073 L 813.508 393.073 Q 813.508 405.259 805.892 411.714 L 805.892 411.714 L 805.892 411.714 Q 798.275 418.168 784.23 418.168 L 784.23 418.168 L 777.363 418.168 L 777.363 445.019 L 761.356 445.019 L 761.356 369.527 L 785.47 369.527 L 785.47 369.527 Q 799.205 369.527 806.356 375.44 L 806.356 375.44 L 806.356 375.44 Q 813.508 381.352 813.508 393.073 Z  M 896.28 407.17 L 896.28 407.17 L 896.28 407.17 Q 896.28 425.913 886.985 435.982 L 886.985 435.982 L 886.985 435.982 Q 877.691 446.051 860.341 446.051 L 860.341 446.051 L 860.341 446.051 Q 842.992 446.051 833.697 435.982 L 833.697 435.982 L 833.697 435.982 Q 824.403 425.913 824.403 407.066 L 824.403 407.066 L 824.403 407.066 Q 824.403 388.219 833.723 378.279 L 833.723 378.279 L 833.723 378.279 Q 843.043 368.34 860.445 368.34 L 860.445 368.34 L 860.445 368.34 Q 877.846 368.34 887.063 378.357 L 887.063 378.357 L 887.063 378.357 Q 896.28 388.374 896.28 407.17 Z  M 841.185 407.17 L 841.185 407.17 L 841.185 407.17 Q 841.185 419.82 845.987 426.223 L 845.987 426.223 L 845.987 426.223 Q 850.789 432.626 860.341 432.626 L 860.341 432.626 L 860.341 432.626 Q 879.498 432.626 879.498 407.17 L 879.498 407.17 L 879.498 407.17 Q 879.498 381.662 860.445 381.662 L 860.445 381.662 L 860.445 381.662 Q 850.892 381.662 846.038 388.09 L 846.038 388.09 L 846.038 388.09 Q 841.185 394.519 841.185 407.17 Z  M 956.487 424.055 L 956.487 424.055 L 956.487 424.055 Q 956.487 434.278 949.129 440.165 L 949.129 440.165 L 949.129 440.165 Q 941.771 446.051 928.655 446.051 L 928.655 446.051 L 928.655 446.051 Q 916.573 446.051 907.278 441.507 L 907.278 441.507 L 907.278 426.636 L 907.278 426.636 Q 914.92 430.044 920.213 431.438 L 920.213 431.438 L 920.213 431.438 Q 925.506 432.833 929.895 432.833 L 929.895 432.833 L 929.895 432.833 Q 935.162 432.833 937.976 430.819 L 937.976 430.819 L 937.976 430.819 Q 940.79 428.805 940.79 424.829 L 940.79 424.829 L 940.79 424.829 Q 940.79 422.609 939.551 420.879 L 939.551 420.879 L 939.551 420.879 Q 938.311 419.149 935.91 417.548 L 935.91 417.548 L 935.91 417.548 Q 933.509 415.948 926.125 412.436 L 926.125 412.436 L 926.125 412.436 Q 919.206 409.183 915.747 406.189 L 915.747 406.189 L 915.747 406.189 Q 912.287 403.194 910.221 399.218 L 910.221 399.218 L 910.221 399.218 Q 908.156 395.242 908.156 389.923 L 908.156 389.923 L 908.156 389.923 Q 908.156 379.906 914.946 374.174 L 914.946 374.174 L 914.946 374.174 Q 921.736 368.443 933.716 368.443 L 933.716 368.443 L 933.716 368.443 Q 939.602 368.443 944.946 369.837 L 944.946 369.837 L 944.946 369.837 Q 950.291 371.231 956.126 373.761 L 956.126 373.761 L 950.962 386.206 L 950.962 386.206 Q 944.921 383.727 940.971 382.746 L 940.971 382.746 L 940.971 382.746 Q 937.02 381.765 933.199 381.765 L 933.199 381.765 L 933.199 381.765 Q 928.655 381.765 926.229 383.882 L 926.229 383.882 L 926.229 383.882 Q 923.802 385.999 923.802 389.407 L 923.802 389.407 L 923.802 389.407 Q 923.802 391.524 924.783 393.099 L 924.783 393.099 L 924.783 393.099 Q 925.764 394.674 927.907 396.145 L 927.907 396.145 L 927.907 396.145 Q 930.05 397.617 938.053 401.438 L 938.053 401.438 L 938.053 401.438 Q 948.638 406.498 952.563 411.584 L 952.563 411.584 L 952.563 411.584 Q 956.487 416.671 956.487 424.055 Z  M 1013.648 431.8 L 1013.648 445.019 L 970.171 445.019 L 970.171 369.527 L 1013.648 369.527 L 1013.648 382.643 L 986.178 382.643 L 986.178 399.218 L 1011.737 399.218 L 1011.737 412.333 L 986.178 412.333 L 986.178 431.8 L 1013.648 431.8 Z " fill="rgb(0,0,0)"/></svg>